<svg width="200" height="200" viewBox="0 0 200 200" xmlns="http://www.w3.org/2000/svg">
  <style>
    .cube { stroke: #000; stroke-width: 1.5; }
    .face1 { fill: #FFD700; }
    .face2 { fill: #00FF00; }
    .face3 { fill: #0000FF; }
    .face4 { fill: #FF0000; }
    .face5 { fill: #FFA500; }
    .face6 { fill: #FFFFFF; }
  </style>
  <g transform="translate(50, 50)">
    <rect class="cube face1" x="0" y="0" width="30" height="30"/>
    <rect class="cube face2" x="30" y="0" width="30" height="30"/>
    <rect class="cube face3" x="60" y="0" width="30" height="30"/>
    <rect class="cube face4" x="0" y="30" width="30" height="30"/>
    <rect class="cube face5" x="30" y="30" width="30" height="30"/>
    <rect class="cube face6" x="60" y="30" width="30" height="30"/>
    <rect class="cube face1" x="0" y="60" width="30" height="30"/>
    <rect class="cube face2" x="30" y="60" width="30" height="30"/>
    <rect class="cube face3" x="60" y="60" width="30" height="30"/>
  </g>
  <g transform="translate(50, 20) rotate(-45 45 45)">
    <rect class="cube face1" x="0" y="0" width="30" height="30"/>
    <rect class="cube face2" x="30" y="0" width="30" height="30"/>
    <rect class="cube face3" x="60" y="0" width="30" height="30"/>
    <rect class="cube face4" x="0" y="30" width="30" height="30"/>
    <rect class="cube face5" x="30" y="30" width="30" height="30"/>
    <rect class="cube face6" x="60" y="30" width="30" height="30"/>
    <rect class="cube face1" x="0" y="60" width="30" height="30"/>
    <rect class="cube face2" x="30" y="60" width="30" height="30"/>
    <rect class="cube face3" x="60" y="60" width="30" height="30"/>
  </g>
  <g transform="translate(50, 50) skewX(-30)">
    <rect class="cube face1" x="0" y="0" width="30" height="30"/>
    <rect class="cube face2" x="30" y="0" width="30" height="30"/>
    <rect class="cube face3" x="60" y="0" width="30" height="30"/>
    <rect class="cube face4" x="0" y="30" width="30" height="30"/>
    <rect class="cube face5" x="30" y="30" width="30" height="30"/>
    <rect class="cube face6" x="60" y="30" width="30" height="30"/>
    <rect class="cube face1" x="0" y="60" width="30" height="30"/>
    <rect class="cube face2" x="30" y="60" width="30" height="30"/>
    <rect class="cube face3" x="60" y="60" width="30" height="30"/>
  </g>
</svg>

